<svg width="56" height="57" viewBox="0 0 56 57" fill="none" xmlns="http://www.w3.org/2000/svg">
<path d="M28 14.1667C26.1177 14.1667 24.2539 14.5374 22.5149 15.2577C20.7759 15.978 19.1958 17.0338 17.8648 18.3648C15.1768 21.0528 13.6667 24.6986 13.6667 28.5C13.6667 32.3014 15.1768 35.9472 17.8648 38.6352C19.1958 39.9662 20.7759 41.0219 22.5149 41.7423C24.2539 42.4626 26.1177 42.8333 28 42.8333C31.8014 42.8333 35.4472 41.3232 38.1352 38.6352C40.8232 35.9472 42.3333 32.3014 42.3333 28.5C42.3333 26.6177 41.9626 24.7539 41.2423 23.0149C40.5219 21.2759 39.4662 19.6958 38.1352 18.3648C36.8042 17.0338 35.2241 15.978 33.4851 15.2577C31.7461 14.5374 29.8823 14.1667 28 14.1667ZM34.02 34.52L26.5667 29.9333V21.3333H28.7167V28.7867L35.1667 32.6567L34.02 34.52Z" fill="#026283"/>
</svg>
