<svg width="61" height="61" viewBox="0 0 61 61" fill="none" xmlns="http://www.w3.org/2000/svg">
<circle cx="30.0547" cy="30.8699" r="29.75" fill="white" stroke="#828282" stroke-width="0.5"/>
<path fill-rule="evenodd" clip-rule="evenodd" d="M34.0223 25.2572H32.6836V26.593H34.0223V25.2572ZM34.0223 27.5286H32.6836V34.2112H34.0223V27.5286ZM21.55 28.2507V27.5286L20.2097 27.5349V36.4826H21.55V33.4891C21.8298 33.7698 22.1642 33.9906 22.5327 34.1377C22.9011 34.2848 23.2958 34.3552 23.6925 34.3446C25.728 34.3446 27.1737 32.9161 27.1737 30.8707C27.1737 28.8252 25.728 27.3951 23.6925 27.3951C23.2958 27.3845 22.9011 27.455 22.5327 27.6021C22.1642 27.7492 21.8298 27.9699 21.55 28.2507ZM23.6925 33.1155C22.4199 33.1155 21.55 32.2191 21.55 30.8707C21.55 29.5206 22.4073 28.6117 23.6925 28.6117C24.9777 28.6117 25.835 29.5222 25.835 30.8707C25.835 32.2191 24.9651 33.1155 23.6925 33.1155ZM35.1031 30.8707C35.1031 28.8394 36.5503 27.3952 38.5859 27.3952C40.6213 27.3952 42.0672 28.8394 42.0672 30.8707C42.0672 32.902 40.6213 34.3446 38.5859 34.3446C36.5503 34.3446 35.1031 32.9146 35.1031 30.8707ZM40.7282 30.8707C40.7282 29.5207 39.8712 28.6118 38.5859 28.6118C37.3007 28.6118 36.4418 29.5207 36.4418 30.8707C36.4418 32.2207 37.3133 33.1155 38.5859 33.1155C39.8585 33.1155 40.7282 32.2207 40.7282 30.8707ZM44.4685 27.5287H43.1299L43.1253 34.2113H44.4639V30.2021C44.4639 29.2665 45.0538 28.6118 46.0181 28.6118C46.9415 28.6118 47.5441 29.2602 47.5441 30.2021V34.2113H48.8841V30.2021C48.8841 28.5585 47.8035 27.3953 46.21 27.3953C45.8841 27.3881 45.5604 27.4499 45.2605 27.5765C44.9603 27.7032 44.6903 27.8917 44.4685 28.1299V27.5287ZM19.1453 34.3463H15.6626C14.9733 34.3466 14.2994 34.1428 13.7262 33.7609C13.1529 33.379 12.7061 32.836 12.4422 32.2005C12.1782 31.5651 12.1091 30.8659 12.2435 30.1913C12.3779 29.5166 12.7098 28.8969 13.1972 28.4105C13.6845 27.9242 14.3056 27.593 14.9816 27.4589C15.6576 27.3247 16.3584 27.3938 16.9951 27.6571C17.6319 27.9205 18.176 28.3664 18.5588 28.9384C18.9415 29.5105 19.1456 30.1829 19.1453 30.8708V34.3463ZM15.6626 28.8065C15.3862 28.7989 15.1112 28.8467 14.8536 28.9469C14.5961 29.0472 14.3613 29.198 14.1631 29.3903C13.965 29.5827 13.8074 29.8128 13.6999 30.0669C13.5923 30.3211 13.5369 30.5941 13.5369 30.87C13.5369 31.1459 13.5923 31.4189 13.6999 31.673C13.8074 31.9272 13.965 32.1573 14.1631 32.3496C14.3613 32.542 14.5961 32.6928 14.8536 32.7931C15.1112 32.8933 15.3862 32.9411 15.6626 32.9334H17.7296V30.8708C17.7292 30.3237 17.5113 29.7991 17.1238 29.4121C16.7363 29.0251 16.2108 28.8073 15.6626 28.8065ZM8.10974 33.1155C8.93246 33.1155 9.58055 32.7482 9.93921 32.1203H11.3849C10.9255 33.4781 9.70485 34.3446 8.10974 34.3446C6.0742 34.3446 4.62695 32.902 4.62695 30.8707C4.62695 28.8394 6.0742 27.3952 8.10974 27.3952C9.69226 27.3952 10.9193 28.2696 11.3817 29.6196H9.9408C9.58213 28.987 8.93246 28.6118 8.10974 28.6118C6.83713 28.6118 5.96721 29.5223 5.96721 30.8707C5.96721 32.2191 6.83713 33.1155 8.10974 33.1155ZM31.5029 28.7452V27.5286H29.4155V25.2572H28.0752V31.9664C28.0752 33.4499 28.8256 34.2112 30.3389 34.2112H31.5045V32.9821H30.4332C29.7505 32.9821 29.4155 32.6477 29.4155 31.9664V28.7452H31.5029ZM51.085 32.3165L50.0294 32.8989C50.5563 33.9098 51.5287 34.4075 52.7903 34.4075C54.2344 34.4075 55.4816 33.5912 55.4816 32.3024C55.4816 30.827 54.1873 30.5375 53.0902 30.2922C52.2838 30.1117 51.5835 29.9552 51.5835 29.3685C51.5835 28.8285 52.1516 28.4957 52.7759 28.4957C53.4006 28.4957 53.956 28.7029 54.2467 29.2994L55.3024 28.7029C54.8714 27.9148 54.0077 27.3324 52.7492 27.3324C51.2643 27.3324 50.2104 28.2053 50.2104 29.3951C50.2104 30.8822 51.4953 31.1595 52.5896 31.3958C53.4013 31.571 54.1086 31.7236 54.1086 32.3307C54.1086 32.9303 53.5124 33.2442 52.7351 33.2442C51.9864 33.2442 51.4309 32.9962 51.085 32.3165Z" fill="black"/>
</svg>
