<svg width="30" height="30" viewBox="0 0 30 30" fill="none" xmlns="http://www.w3.org/2000/svg">
<path d="M11.25 3.75V6.25M18.75 3.75V6.25M11.25 23.75V26.25M18.75 23.75V26.25M6.25 11.25H3.75M6.25 18.75H3.75M26.25 11.25H23.75M26.25 18.75H23.75M8.75 23.75H21.25C22.6307 23.75 23.75 22.6307 23.75 21.25V8.75C23.75 7.36929 22.6307 6.25 21.25 6.25H8.75C7.36929 6.25 6.25 7.36929 6.25 8.75V21.25C6.25 22.6307 7.36929 23.75 8.75 23.75ZM11.25 11.25H18.75V18.75H11.25V11.25Z" stroke="white" stroke-width="2" stroke-linecap="round" stroke-linejoin="round"/>
</svg>
