<svg width="30" height="30" viewBox="0 0 30 30" fill="none" xmlns="http://www.w3.org/2000/svg">
<g clip-path="url(#clip0_154_304)">
<path d="M13.5353 0.041069C10.6935 0.328178 7.98649 1.41216 5.74235 3.1524C5.0568 3.6856 3.89079 4.83404 3.32243 5.53716C1.68766 7.56451 0.621257 9.93169 0.164225 12.5626C-0.00569662 13.5704 -0.0525716 15.7911 0.082194 16.8165C0.334147 18.7032 0.797038 20.2208 1.62321 21.8438C2.31462 23.209 3.12321 24.3282 4.24821 25.4825C6.67399 27.9727 9.65641 29.4551 13.1838 29.918C14.2033 30.0469 16.424 30.0059 17.4377 29.8301C18.9728 29.5665 20.2795 29.1446 21.6506 28.4708C23.1037 27.7559 24.2756 26.9297 25.4826 25.752C27.8088 23.4844 29.2736 20.6895 29.8302 17.4376C30.006 16.418 30.047 14.2676 29.9181 13.1836C29.3791 8.78326 26.9474 4.86919 23.2326 2.42583C21.3048 1.16021 19.1603 0.375053 16.8752 0.087944C16.2131 0.00591278 14.1447 -0.0233841 13.5353 0.041069ZM18.5685 7.64068C18.6857 7.74615 18.6916 7.8106 18.6916 8.75982C18.6916 9.53326 18.674 9.79107 18.6095 9.87896C18.5334 9.97857 18.4279 9.99615 17.6252 10.0196C16.5529 10.0606 16.3244 10.1485 16.1017 10.5997C15.9787 10.8458 15.967 10.9688 15.9494 12.0235L15.9259 13.1836H17.2326C18.3634 13.1836 18.5509 13.1954 18.6447 13.2833C18.7795 13.4063 18.7795 13.5645 18.633 14.7364C18.5685 15.252 18.5158 15.6915 18.5158 15.7149C18.5158 15.7442 18.4631 15.8145 18.3986 15.879C18.2873 15.9903 18.2052 15.9961 17.1095 15.9961H15.9377V19.1426C15.9377 21.0294 15.9142 22.3301 15.8791 22.3829C15.8029 22.5059 13.4884 22.5118 13.342 22.3887C13.2541 22.3184 13.2423 22.0196 13.2423 19.1544V15.9961H12.3752C11.1564 15.9961 11.2502 16.1075 11.2502 14.6075C11.2502 13.5645 11.2619 13.3829 11.3498 13.2891C11.4318 13.1954 11.549 13.1836 12.3459 13.1836H13.2423V11.9883C13.2423 10.5704 13.3302 9.94927 13.6173 9.34576C14.0041 8.5313 14.5431 8.03912 15.3752 7.74615C15.8966 7.56451 16.4298 7.51177 17.5548 7.52349C18.34 7.52935 18.4572 7.54107 18.5685 7.64068Z" fill="#026283"/>
</g>
<defs>
<clipPath id="clip0_154_304">
<rect width="30" height="30" fill="white"/>
</clipPath>
</defs>
</svg>
