<svg width="49" height="50" viewBox="0 0 49 50" fill="none" xmlns="http://www.w3.org/2000/svg">
<path d="M24.8438 14.0593C19.7656 18.9782 14.7564 23.8301 9.84182 28.5905C10.8919 29.7352 11.8815 30.8139 12.9214 31.9475C13.3648 31.5456 13.7494 31.228 14.0988 30.8754C17.2136 27.7334 20.3381 24.6009 23.4201 21.4267C24.1025 20.7237 24.5401 20.6782 25.2502 21.4165C27.5577 23.8157 29.952 26.1306 32.2833 28.5072C33.4501 29.6966 34.5528 30.9495 35.4628 31.9339C36.9119 30.6333 38.09 29.5758 39.1858 28.5924C34.2636 23.6045 29.4114 18.6878 24.8438 14.0593ZM48.9974 24.6663C48.9979 38.566 37.3662 49.3199 24.4271 49.1404C10.755 48.9507 -0.199369 37.6931 0.0639767 24.2556C0.327387 10.8129 11.5284 -0.115707 24.687 0.00094986C38.3885 0.122452 49.1904 11.6858 48.9974 24.6663Z" fill="#026283"/>
</svg>
