<svg xmlns="http://www.w3.org/2000/svg" fill="none" viewBox="162.64 389.97 533.22 95.36">
<path d="M290.4 390.267C290.133 390.933 290.267 412 290.667 437.333L291.333 483.333H296C299.6 483.333 300.533 482.8 300 481.333C299.6 480.267 299.333 459.733 299.2 435.733C299.2 411.733 298.933 391.867 298.533 391.6C297.2 390.4 290.8 389.467 290.4 390.267Z" fill="#026283"/>
<path d="M181.467 399.867C171.6 402.4 165.2 410.133 164.267 420.4C163.2 433.867 168.667 440 187.467 446.267C203.6 451.6 207.2 454.933 206.933 464.533C206.533 478.267 181.867 481.333 170.267 469.067C167.867 466.667 167.6 466.533 165.2 468.8C157.2 476 168.933 484.4 187.2 484.533C199.733 484.667 206.933 481.733 212.133 474.4C216.267 468.667 217.2 456.8 214 450.667C210.533 444 207.333 441.867 193.333 437.2C177.467 432 173.333 428.4 173.333 420.4C173.333 406.533 191.2 402.133 203.867 412.8C210.267 418.133 217.2 413.733 213.467 406.933C210.533 401.333 191.867 397.333 181.467 399.867Z" fill="#026283"/>
<path d="M479.733 440.267C480.133 466.667 480.8 481.333 481.733 482.4C482.8 483.733 488 484.133 504.267 483.733C526.267 483.333 528.4 482.667 527.067 477.467C526.533 475.467 524.267 475.2 508.267 475.333H490L489.6 458.933L489.2 442.667H499.867C512.667 442.667 514.667 442 514.667 437.867C514.667 434.667 514.533 434.667 502 434.667H489.333V421.2V407.6L508 408.267L526.667 408.933V405.333C526.667 403.2 525.733 401.333 524.533 400.8C523.333 400.4 512.8 400 500.933 400H479.333L479.733 440.267Z" fill="#026283"/>
<path d="M437.2 411.6C437.067 412.267 437.067 415.467 437.2 418.933L437.467 425.2L431.733 425.6C426.933 425.867 425.867 426.533 425.6 428.933C425.2 431.733 425.733 432 431.067 432H437.067L437.6 452.267C438.133 476.267 439.6 480.667 448.8 483.867C458.4 487.2 469.733 482.933 466.667 477.2C465.333 474.8 464.933 474.8 462.267 476.667C458.933 478.933 454.267 479.2 450.667 477.333C446.667 475.2 445.333 468.4 445.333 449.867V432H455.067C464.667 432 468 430.667 468 427.067C468 425.733 465.2 425.333 457.333 425.333H446.667V419.6C446.667 416.4 446 413.2 445.067 412.267C443.333 410.533 437.467 410.133 437.2 411.6Z" fill="#026283"/>
<path d="M244.667 426.533C233.867 431.333 228 441.6 228 455.467C228 474.933 240.667 487.067 258.933 484.933C270.8 483.467 276.8 477.867 271.333 473.333C269.6 471.867 268.667 472.133 266.133 474.533C256.8 483.2 241.467 476.667 238 462.533L237.2 459.067L248.933 458C264.267 456.8 269.2 455.067 272.933 449.467C283.467 433.867 263.6 417.867 244.667 426.533ZM264.4 434.4C265.867 435.867 267.067 438.667 267.067 440.667C267.067 447.867 258.933 451.867 244.4 452C237.733 452 237.333 451.867 237.333 448.533C237.333 435.067 255.467 425.6 264.4 434.4Z" fill="#026283"/>
<path d="M332.8 426C320.4 430.4 313.733 442.8 315.066 458.8C315.466 463.733 316.8 469.6 317.866 471.733C322.666 481.067 334 486.267 345.866 484.667C357.733 483.2 363.466 477.867 358.133 473.333C356.533 472.133 355.333 472.4 352 474.933C346.8 478.8 338.133 479.067 332.8 475.6C329.466 473.333 324.133 464.133 324 460.533C324 459.6 328.4 458.667 335.466 458C341.733 457.467 348.8 456.533 351.066 455.867C362 452.8 366.266 439.467 359.066 431.067C353.066 424.4 342.933 422.4 332.8 426ZM349.866 433.467C352.8 435.733 353.333 437.2 353.066 441.067C352.4 448.133 348.266 450.533 334.8 451.6L323.6 452.4L324.4 446.8C325.333 439.6 328.4 434.933 333.733 432.667C339.866 430 345.733 430.267 349.866 433.467Z" fill="#026283"/>
<path d="M388.533 428C379.067 433.333 374.667 442 374.667 455.2C374.8 473.867 385.067 485.333 402 485.333C411.867 485.333 421.067 480.133 419.2 475.6C418.133 472.667 414.4 471.6 413.067 473.867C411.467 476.8 403.467 478.933 398 477.867C387.067 475.867 380.933 462.4 384 447.467C385.867 438.667 389.2 434 395.333 432C401.2 430 408.133 432.133 411.867 436.8C414.133 439.733 414.933 440 417.333 438.667C422.267 436 420.4 430.533 413.333 426.933C404.933 422.8 397.067 423.067 388.533 428Z" fill="#026283"/>
<path d="M548.667 426C540.4 429.067 537.2 435.733 542.533 438.667C544.667 439.733 545.6 439.333 547.733 436.667C553.067 429.867 566 428.933 569.867 435.067C572 438.533 573.467 446.933 572.267 448.933C571.733 449.6 567.467 450.667 562.667 451.067C544.4 452.8 537.333 457.067 537.333 466.4C537.333 475.2 539.6 479.6 545.867 482.533C553.067 486.133 558.933 486 566.4 482.4C571.867 479.867 572.4 479.733 573.6 481.733C574.267 483.067 576.4 484 578.4 484H582L581.467 461.733C580.933 437.2 579.867 431.6 574.267 427.467C569.6 424 556.133 423.2 548.667 426ZM572 464.667C572 474.133 570.267 476.4 561.6 478.133C552.933 479.867 546.667 476 546.667 468.933C546.667 461.733 550 459.2 562.4 457.467C566.533 456.8 570.4 456.267 571.067 456.133C571.6 456.133 572 459.867 572 464.667Z" fill="#026283"/>
<path d="M606.4 426.667C599.733 430.267 596.667 435.067 596.933 441.6C597.333 451.2 602.133 455.467 615.6 458.667C623.733 460.533 629.333 464.4 629.333 468.133C629.333 478.4 613.6 481.867 603.867 473.733C599.333 469.867 596 470.533 596 475.067C596 484.4 617.067 488.4 628.667 481.333C633.867 478.133 636 473.733 636 466.133C636 458.267 631.6 454.133 619.867 450.533C604.4 445.867 599.867 439.467 607.467 433.467C612.933 429.2 621.2 430.267 627.6 436.267C630.133 438.667 630.933 438.8 632.667 437.333C633.867 436.4 634.667 434.4 634.4 432.933C633.333 425.333 615.867 421.467 606.4 426.667Z" fill="#026283"/>
<path d="M665.333 426.133C659.733 428.533 653.866 434 651.066 439.067C648.4 444.4 647.333 459.467 649.333 466.667C652.666 478.933 665.2 486.533 679.2 484.667C691.2 483.067 696.8 477.867 691.333 473.333C689.6 471.867 688.8 472.133 686.266 474.4C684.666 476 680.933 477.6 678 478C668.666 479.333 660.666 473.067 658 462.4L657.066 458.933L668.933 458C683.866 456.933 689.2 455.067 692.933 449.467C703.333 434.133 684.133 418 665.333 426.133ZM683.466 433.733C685.733 435.733 687.066 438.133 687.066 440.533C687.066 447.867 679.066 451.867 664.133 452H656.933L657.866 446.533C658.933 439.6 661.733 435.467 667.066 432.8C673.2 429.733 679.2 430.133 683.466 433.733Z" fill="#026283"/>
</svg>