<svg width="56" height="57" viewBox="0 0 56 57" fill="none" xmlns="http://www.w3.org/2000/svg">
<path d="M28.0093 35.3396C29.9111 35.3396 31.5246 34.6738 32.8498 33.3423C34.175 32.0109 34.8383 30.3943 34.8395 28.4925C34.8408 26.5908 34.175 24.9767 32.8423 23.6502C31.5096 22.3237 29.893 21.6605 27.9925 21.6605C26.092 21.6605 24.4779 22.3262 23.1502 23.6577C21.8224 24.9891 21.1592 26.6064 21.1604 28.5094C21.1617 30.4124 21.8274 32.0258 23.1576 33.3498C24.4879 34.6738 26.1051 35.3371 28.0093 35.3396ZM28 33.5539C26.5961 33.5539 25.4032 33.0628 24.4211 32.0808C23.439 31.0987 22.9474 29.9051 22.9461 28.5C22.9449 27.0949 23.4365 25.902 24.4211 24.9211C25.4057 23.9403 26.5986 23.4487 28 23.4462C29.4013 23.4437 30.5949 23.9353 31.5807 24.9211C32.5665 25.907 33.0576 27.0999 33.0538 28.5C33.0501 29.9001 32.559 31.0937 31.5807 32.0808C30.6024 33.0678 29.4088 33.5588 28 33.5539ZM28 40.6667C24.2988 40.6667 20.9046 39.6871 17.8174 37.728C14.7302 35.7688 12.237 33.202 10.3377 30.0274C10.1817 29.7691 10.0707 29.5151 10.0045 29.2656C9.9384 29.016 9.90533 28.7602 9.90533 28.4981C9.90533 28.2361 9.9384 27.9803 10.0045 27.7307C10.0707 27.4811 10.1817 27.2284 10.3377 26.9726C12.2382 23.7981 14.7314 21.2312 17.8174 19.2721C20.9034 17.3129 24.2976 16.3333 28 16.3333C31.7024 16.3333 35.0966 17.3129 38.1825 19.2721C41.2685 21.2312 43.7624 23.7987 45.6641 26.9745C45.8201 27.2303 45.9311 27.483 45.9973 27.7326C46.0634 27.9821 46.0959 28.2386 46.0946 28.5019C46.0934 28.7652 46.0609 29.021 45.9973 29.2693C45.9336 29.5176 45.8226 29.7703 45.6641 30.0274C43.7636 33.2032 41.2698 35.7707 38.1825 37.7298C35.0953 39.689 31.7011 40.6679 28 40.6667Z" fill="#026283"/>
</svg>
