<svg width="30" height="30" viewBox="0 0 30 30" fill="none" xmlns="http://www.w3.org/2000/svg">
<g clip-path="url(#clip0_154_310)">
<path d="M13.5353 0.041069C10.6935 0.328178 7.98649 1.41216 5.74235 3.1524C5.0568 3.6856 3.89079 4.83404 3.32243 5.53716C1.68766 7.56451 0.621257 9.93169 0.164225 12.5626C-0.00569662 13.5704 -0.0525716 15.7911 0.082194 16.8165C0.334147 18.7032 0.797038 20.2208 1.62321 21.8438C2.31462 23.209 3.12321 24.3282 4.24821 25.4825C6.67399 27.9727 9.65641 29.4551 13.1838 29.918C14.2033 30.0469 16.424 30.0059 17.4377 29.8301C18.9728 29.5665 20.2795 29.1446 21.6506 28.4708C23.1037 27.7559 24.2756 26.9297 25.4826 25.752C27.8088 23.4844 29.2736 20.6895 29.8302 17.4376C30.006 16.418 30.047 14.2676 29.9181 13.1836C29.3791 8.78326 26.9474 4.86919 23.2326 2.42583C21.3048 1.16021 19.1603 0.375053 16.8752 0.087944C16.2131 0.00591278 14.1447 -0.0233841 13.5353 0.041069ZM19.0431 7.64068C20.3849 8.00982 21.4279 8.85943 22.0021 10.0489C22.4826 11.045 22.4709 10.9278 22.4709 15.0001C22.4709 19.0372 22.4826 18.9376 22.0314 19.8926C21.592 20.8419 20.8947 21.545 19.9513 22.002C18.9552 22.4825 19.0724 22.4708 15.0002 22.4708C10.9279 22.4708 11.0451 22.4825 10.049 22.002C9.10563 21.545 8.40837 20.8419 7.96891 19.8926C7.51774 18.9376 7.52946 19.0372 7.52946 15.0001C7.52946 10.9629 7.51774 11.0626 7.96891 10.1075C8.6193 8.70708 9.97282 7.72857 11.4787 7.55865C11.7248 7.53521 13.4416 7.51763 15.2931 7.52349C18.3166 7.53521 18.7033 7.54693 19.0431 7.64068Z" fill="#026283"/>
<path d="M11.4251 9.02954C10.3001 9.21704 9.29225 10.1956 9.05202 11.3499C8.92897 11.9182 8.92897 18.0706 9.04616 18.6331C9.17506 19.2483 9.40944 19.6702 9.86647 20.1331C10.3294 20.5901 10.7512 20.8245 11.3665 20.9534C11.929 21.0706 18.0813 21.0706 18.6438 20.9534C19.2473 20.8245 19.6633 20.5901 20.1321 20.1272C20.595 19.6702 20.8176 19.2659 20.9524 18.6448C21.0696 18.0706 21.0696 11.9241 20.9465 11.3499C20.7005 10.1721 19.6985 9.21118 18.5149 9.02368C18.0462 8.95337 11.8821 8.95923 11.4251 9.02954ZM19.388 10.3538C19.6575 10.553 19.804 10.8284 19.804 11.1331C19.804 12.0002 18.6614 12.3635 18.1633 11.6604C18.0227 11.4612 17.9524 11.1038 18.011 10.8752C18.0579 10.676 18.3274 10.3713 18.5442 10.2776C18.7727 10.1721 19.1887 10.2073 19.388 10.3538ZM15.5442 11.1975C17.5715 11.5081 19.0774 13.4475 18.8137 15.4104C18.5735 17.2209 17.2669 18.551 15.4797 18.8088C13.7805 19.0608 12.0227 17.9944 11.4016 16.342C10.5637 14.1155 11.97 11.6487 14.3255 11.2209C14.8528 11.1213 15.0286 11.1213 15.5442 11.1975Z" fill="#026283"/>
<path d="M14.3556 12.691C12.5978 13.1656 12.0118 15.4215 13.3126 16.6989C14.7013 18.0641 17.0333 17.3082 17.3615 15.3864C17.6544 13.6696 16.0548 12.234 14.3556 12.691Z" fill="#026283"/>
</g>
<defs>
<clipPath id="clip0_154_310">
<rect width="30" height="30" fill="white"/>
</clipPath>
</defs>
</svg>
