<svg width="56" height="57" viewBox="0 0 56 57" fill="none" xmlns="http://www.w3.org/2000/svg">
<path d="M18.2692 28.9516V41.5968C18.2692 41.8533 18.1843 42.0676 18.0145 42.2399C17.8446 42.4121 17.6341 42.4988 17.3828 42.5C17.1316 42.5012 16.9217 42.4145 16.753 42.2399C16.5843 42.0652 16.5 41.8509 16.5 41.5968V15.9596C16.5 15.5465 16.6368 15.1997 16.9105 14.9191C17.1841 14.6385 17.5238 14.4988 17.9295 14.5H28.0372C28.3792 14.5 28.6847 14.6066 28.9536 14.8197C29.2225 15.0329 29.39 15.3159 29.4561 15.6688L29.9338 18.1129H38.0722C38.4768 18.1129 38.8159 18.2514 39.0895 18.5284C39.3632 18.8054 39.5 19.1486 39.5 19.5581V31.1193C39.5 31.5288 39.3632 31.872 39.0895 32.149C38.8159 32.426 38.4762 32.5645 38.0705 32.5645H31.5031C31.161 32.5645 30.8555 32.4579 30.5866 32.2448C30.3177 32.0316 30.1502 31.7486 30.0842 31.3957L29.6047 28.9516H18.2692Z" fill="#026283"/>
</svg>
