<svg width="57" height="57" viewBox="0 0 57 57" fill="none" xmlns="http://www.w3.org/2000/svg">
<path d="M18.052 42.5C17.8479 42.5 17.6769 42.4296 17.5389 42.2888C17.4009 42.148 17.3324 41.9722 17.3334 41.7615V20.8007C17.3334 20.458 17.4436 20.1735 17.6639 19.947C17.8843 19.7205 18.1612 19.6073 18.4946 19.6073H23.345C23.642 19.6073 23.8988 19.723 24.1153 19.9544C24.3319 20.1858 24.4444 20.4629 24.4531 20.7859C24.4473 20.8371 24.443 20.8868 24.4401 20.9351C24.4372 20.9833 24.4358 21.033 24.4358 21.0842C24.5949 23.5931 25.5582 25.6795 27.3259 27.3435C29.0936 29.0066 31.1799 29.8381 33.5847 29.8381C33.8003 29.8381 34.0159 29.8322 34.2315 29.8204C34.447 29.8086 34.6597 29.7805 34.8696 29.7362C35.1714 29.687 35.4382 29.7598 35.6701 29.9548C35.901 30.1498 36.0164 30.3998 36.0164 30.7051V33.1834C36.0164 33.527 35.9062 33.8116 35.6859 34.0371C35.4655 34.2626 35.1886 34.3758 34.8552 34.3768H29.5205C29.2407 34.3768 28.9916 34.2896 28.7731 34.1154C28.5566 33.9411 28.4215 33.7097 28.3679 33.4212L27.9784 31.4229H18.7705V41.7615C18.7705 41.9722 18.702 42.148 18.565 42.2888C18.428 42.4296 18.257 42.5 18.052 42.5ZM33.5847 14.5C35.1848 14.5 36.5429 15.0735 37.6591 16.2206C38.7753 17.3677 39.3334 18.7635 39.3334 20.4078C39.3334 22.0521 38.7753 23.4483 37.6591 24.5964C36.5429 25.7445 35.1848 26.3176 33.5847 26.3156C31.9847 26.3136 30.6261 25.7406 29.509 24.5964C28.3918 23.4523 27.8342 22.0561 27.8361 20.4078C27.8361 18.7635 28.3937 17.3677 29.509 16.2206C30.6242 15.0735 31.9828 14.5 33.5847 14.5ZM32.5701 21.5303L31.1488 20.0696C31.0252 19.9426 30.8795 19.8761 30.7119 19.8702C30.5442 19.8643 30.3895 19.9337 30.2477 20.0784C30.1059 20.2232 30.035 20.3778 30.035 20.5422C30.035 20.7066 30.1059 20.8607 30.2477 21.0045L31.7567 22.5553C31.9895 22.7936 32.2606 22.9127 32.5701 22.9127C32.8796 22.9127 33.1502 22.7936 33.3821 22.5553L36.9218 18.9279C37.0454 18.8009 37.1115 18.6502 37.1202 18.4759C37.1297 18.3007 37.0636 18.1402 36.9218 17.9945C36.78 17.8487 36.6296 17.7769 36.4706 17.7788C36.3115 17.7808 36.1616 17.8527 36.0207 17.9945L32.5701 21.5303Z" fill="#026283"/>
</svg>
