<svg width="30" height="30" viewBox="0 0 30 30" fill="none" xmlns="http://www.w3.org/2000/svg">
<g clip-path="url(#clip0_154_319)">
<path d="M13.5353 0.041069C10.6935 0.328178 7.98649 1.41216 5.74235 3.1524C5.0568 3.6856 3.89079 4.83404 3.32243 5.53716C1.68766 7.56451 0.621257 9.93169 0.164225 12.5626C-0.00569662 13.5704 -0.0525716 15.7911 0.082194 16.8165C0.334147 18.7032 0.797038 20.2208 1.62321 21.8438C2.31462 23.209 3.12321 24.3282 4.24821 25.4825C6.67399 27.9727 9.65641 29.4551 13.1838 29.918C14.2033 30.0469 16.424 30.0059 17.4377 29.8301C18.9728 29.5665 20.2795 29.1446 21.6506 28.4708C23.1037 27.7559 24.2756 26.9297 25.4826 25.752C27.8088 23.4844 29.2736 20.6895 29.8302 17.4376C30.006 16.418 30.047 14.2676 29.9181 13.1836C29.3791 8.78326 26.9474 4.86919 23.2326 2.42583C21.3048 1.16021 19.1603 0.375053 16.8752 0.087944C16.2131 0.00591278 14.1447 -0.0233841 13.5353 0.041069ZM10.2541 7.65826C11.8947 8.23833 12.0705 10.4883 10.5412 11.3086C10.2248 11.4727 10.09 11.5079 9.69743 11.5313C9.10563 11.5606 8.68962 11.4141 8.26774 11.0391C7.41813 10.2715 7.35954 9.03521 8.13883 8.19146C8.68962 7.58794 9.48649 7.38873 10.2541 7.65826ZM19.8517 12.4512C20.8888 12.6915 21.6388 13.3829 22.0314 14.4669C22.3771 15.4044 22.4006 15.6797 22.424 19.0489L22.4533 22.1309L22.3068 22.3008L22.1603 22.4708H20.8361C19.5412 22.4708 19.5119 22.4708 19.383 22.336L19.2482 22.2012L19.2189 19.2891C19.1955 17.4434 19.1603 16.3126 19.1193 16.1954C18.8556 15.4395 18.4162 15.0704 17.7248 15.0118C16.7521 14.9356 16.0666 15.5215 15.8263 16.629C15.7853 16.834 15.7619 17.8301 15.7619 19.5411V22.1426L15.6213 22.3067L15.4806 22.4708L14.3791 22.4883C13.1662 22.5118 12.9377 22.4883 12.7677 22.3184C12.6623 22.2129 12.6564 22.084 12.6564 17.4669V12.7208L12.8088 12.6036C12.9552 12.4864 13.0373 12.4805 14.2209 12.4805C15.4748 12.4805 15.4748 12.4805 15.6154 12.627C15.7443 12.7559 15.7619 12.8145 15.7619 13.2422C15.7619 13.5001 15.7795 13.711 15.8088 13.711C15.8322 13.711 15.9259 13.6055 16.0138 13.4766C16.3185 13.0489 16.9338 12.6387 17.5138 12.4805C18.1994 12.2989 19.1134 12.2872 19.8517 12.4512ZM10.9865 12.627L11.133 12.7676V17.4786V22.1895L10.9806 22.3301C10.8341 22.4649 10.799 22.4708 9.76188 22.4883C9.09391 22.5001 8.59587 22.4825 8.44938 22.4415C7.99821 22.3243 8.02165 22.6114 8.03922 17.3965L8.0568 12.7618L8.22087 12.6211C8.38493 12.4805 8.40251 12.4805 9.6154 12.4805C10.8459 12.4805 10.8459 12.4805 10.9865 12.627Z" fill="#026283"/>
</g>
<defs>
<clipPath id="clip0_154_319">
<rect width="30" height="30" fill="white"/>
</clipPath>
</defs>
</svg>
