<svg width="112" height="50" viewBox="0 0 112 50" fill="none" xmlns="http://www.w3.org/2000/svg">
<path d="M87.8438 14.0593C82.7656 18.9782 77.7564 23.8301 72.8418 28.5905C73.8919 29.7352 74.8815 30.8139 75.9214 31.9475C76.3648 31.5456 76.7494 31.228 77.0988 30.8754C80.2136 27.7334 83.3381 24.6009 86.4201 21.4267C87.1025 20.7237 87.5401 20.6782 88.2502 21.4165C90.5577 23.8157 92.952 26.1306 95.2833 28.5072C96.4501 29.6966 97.5528 30.9495 98.4628 31.9339C99.9119 30.6333 101.09 29.5758 102.186 28.5924C97.2636 23.6045 92.4114 18.6878 87.8438 14.0593ZM111.997 24.6663C111.998 38.566 100.366 49.3199 87.4271 49.1404C73.755 48.9507 62.8006 37.6931 63.064 24.2556C63.3274 10.8129 74.5284 -0.115707 87.687 0.00094986C101.389 0.122452 112.19 11.6858 111.997 24.6663Z" fill="#026283"/>
<path d="M46.0072 36.1923C46.3326 36.683 46.5888 37.5148 46.9968 37.5983C48.0772 37.8195 49.5967 36.6802 49.8394 35.5545C49.9249 35.1582 49.6641 34.4487 49.3363 34.2413C47.8304 33.2885 46.2202 34.2652 46.0072 36.1923ZM42.484 33.6882C43.8129 31.0256 46.0325 29.7626 48.641 30.1184C51.3204 30.4838 53.9384 32.806 54.3034 35.3649C54.4 36.0417 54.0875 37.0105 53.6099 37.4914C52.3711 38.7387 50.935 39.7882 49.5796 40.919C49.2322 41.2088 48.8922 41.5074 48.5422 41.8075C49.6907 42.9465 50.4357 42.9539 52.3557 41.9251C53.7882 41.1575 54.3064 41.225 54.7578 42.2381C55.2847 43.4207 54.7099 44.7747 53.4887 45.2562C47.4728 47.6282 43.9363 44.156 42.6452 38.674C42.4537 37.8611 42.3432 37.0288 42.1722 36.0768C40.3036 36.8493 38.8765 35.7588 37.3552 35.1422C36.3057 34.7168 35.4112 34.7991 34.3959 35.9026C35.1584 36.3689 35.7947 36.8637 36.5102 37.1741C38.1247 37.8743 39.874 38.3127 41.3926 39.1714C43.415 40.315 43.8562 42.617 42.7198 44.6539C41.165 47.4407 37.3604 49.0595 34.3574 48.0242C33.4271 47.7034 32.5766 46.9331 31.8852 46.1859C31.0632 45.2977 31.2653 44.285 32.1602 43.5307C33.0826 42.7534 33.9341 42.8425 34.666 43.7708C35.3844 44.682 36.3055 44.7834 37.2751 44.4161C38.1467 44.086 39.1862 43.5687 38.9952 42.5241C38.8923 41.9612 37.9597 41.4088 37.2871 41.1232C35.8611 40.5175 34.267 40.2627 32.9213 39.5309C31.9522 39.0039 31.0361 38.0639 30.5216 37.0831C29.7945 35.6967 30.5226 34.1481 32.1226 32.7945C35.202 30.1895 39.4481 30.5259 42.484 33.6882Z" fill="#026283"/>
<path d="M31.3825 19.2898C32.0688 18.7837 32.7728 18.4505 33.2065 17.9017C33.8756 17.0551 33.4732 16.3942 32.3898 16.3637C31.0252 16.3252 30.5211 17.4805 31.3825 19.2898ZM32.7497 22.385C33.644 23.3028 34.4561 22.7638 35.1979 22.3778C36.0686 21.9247 36.8758 21.3805 37.446 22.7142C37.8948 23.7637 37.3911 24.6671 36.1577 25.1514C31.7775 26.8711 28.8534 24.0008 28.0832 20.2567C27.7797 18.7811 27.7124 17.1249 28.0635 15.6798C28.4664 14.0215 30.0145 13.2851 31.6845 13.2121C33.6348 13.1269 35.1708 14.024 36.3038 15.5966C36.5952 16.001 36.7837 16.4802 37.1553 17.1812C37.3783 14.9387 38.518 13.3961 39.9334 12.0773C40.7793 11.2891 41.7494 10.5674 42.7857 10.0747C43.636 9.67035 44.7116 9.79121 45.2475 10.7329C45.7534 11.6216 45.2943 12.4769 44.6065 13.1117C44.1497 13.5333 43.5787 13.8327 43.0501 14.1731C41.0247 15.4774 40.1237 17.5032 40.7767 19.3004C41.4558 21.1692 43.6537 21.7856 45.1834 20.5408C45.6054 20.1974 45.9999 19.7823 46.48 19.5564C47.5556 19.0502 48.3164 19.6409 48.2149 20.8318C48.0886 22.3134 46.9201 23.6252 45.3741 24.021C40.9689 25.1488 37.8614 23.1432 37.0331 18.7087C35.6438 19.9012 34.224 21.1196 32.7497 22.385Z" fill="#026283"/>
<path d="M26.4032 40.9247C26.2409 40.8451 26.0785 40.7653 25.9162 40.6856C24.6623 41.2317 23.3529 41.6832 22.1849 42.3754C21.7794 42.6157 21.521 43.4756 21.5814 44.0085C21.6206 44.355 22.3222 44.7907 22.7885 44.8876C23.634 45.0631 24.5258 45.0489 25.3973 45.0387C25.6286 45.036 26.0343 44.7832 26.0577 44.6051C26.2178 43.3843 26.2975 42.1528 26.4032 40.9247ZM30.075 38.56C29.6272 43.1548 29.5709 45.5373 29.7202 46.6691C29.7379 46.8029 29.7568 47.6618 29.4934 48.676C29.149 50.0017 28.0707 50.2426 26.9683 49.4317C26.4107 49.0215 25.6779 48.7796 24.9886 48.6407C24.0885 48.4594 23.1456 48.5049 22.234 48.3666C18.3834 47.7826 16.6531 43.6554 18.9317 40.4705C20.286 38.5775 22.1851 37.632 24.4751 37.3671C25.0812 37.297 25.6739 37.022 26.2361 36.7613C26.3131 36.7257 26.1989 35.9831 26.135 35.9771C25.5034 35.9175 24.8151 35.7932 24.2374 35.9809C23.2886 36.2892 22.3947 36.7868 21.506 37.2583C20.5415 37.77 19.8197 37.5448 19.2492 36.6545C18.4741 35.4451 18.4984 34.57 19.3322 33.8703C21.139 32.3545 23.2997 31.8571 25.5591 31.9425C26.2155 31.9673 26.8221 32.1291 27.3603 32.402C29.0298 33.2487 29.5749 35.1967 29.7938 35.939C30.005 36.6552 30.07 37.2659 30.0929 37.6511C30.0869 37.9541 30.081 38.2571 30.075 38.56Z" fill="#026283"/>
<path d="M10.0099 41.8128C11.2716 41.4739 12.4591 41.0626 12.9872 39.6401C13.2724 38.8719 13.049 38.3981 12.3415 38.1467C11.4361 37.825 10.5215 37.716 9.7951 38.5492C9.10089 39.3455 9.19537 40.7218 10.0099 41.8128ZM11.7131 45.7546C12.3637 46.7309 13.1242 46.8728 14.0012 46.5174C14.6621 46.2496 15.3138 45.9524 15.9477 45.6255C16.9471 45.1099 17.6251 45.3727 17.9529 46.4427C18.3177 47.6334 17.7991 48.7244 16.6302 49.225C12.2585 51.0972 8.37239 49.5273 6.57123 45.0569C6.05629 43.7788 5.75332 42.3943 5.51046 41.0303C5.05718 38.4846 5.70244 36.3028 8.03897 34.9205C10.1448 33.6747 13.0467 34.0497 15.1097 35.7604C15.5287 36.1078 15.9156 36.5074 16.2604 36.9298C18.0056 39.0679 17.8756 40.6594 15.8029 42.446C15.1337 43.0228 14.4074 43.5324 13.719 44.0872C13.0659 44.6135 12.428 45.159 11.7131 45.7546Z" fill="#026283"/>
<path d="M4.68176 15.9961C6.23332 16.9685 7.7694 17.9671 9.34087 18.9059C10.8822 19.8266 12.3489 20.7933 12.8767 22.6633C13.4419 24.6658 12.5976 26.686 10.5305 27.8991C8.16133 29.2894 5.58138 29.5374 2.9914 28.7055C2.3816 28.5096 1.56143 27.6021 1.5967 27.0731C1.65001 26.2732 2.31088 25.4725 2.84945 24.7787C2.97252 24.6202 3.73153 24.7748 4.05827 24.9946C5.21077 25.7701 7.75809 25.9711 8.89446 24.987C9.72728 24.2658 9.87025 23.7354 9.01059 23.056C7.99048 22.2498 6.87222 21.57 5.81062 20.8154C4.13439 19.6238 2.42938 18.4675 0.814688 17.1961C-0.272481 16.3401 -0.227455 15.6375 0.68764 14.4963C1.96089 12.9084 3.76031 12.1793 5.56757 11.4828C6.86027 10.9846 8.16808 10.4943 9.50986 10.171C10.0922 10.0307 10.8669 10.1539 11.3966 10.4459C12.5697 11.0925 12.5827 12.2734 11.396 12.9C10.3312 13.4622 9.12653 13.7555 7.98688 14.1764C6.90691 14.5753 5.83123 14.986 4.7537 15.3915C4.72968 15.593 4.70572 15.7945 4.68176 15.9961Z" fill="#026283"/>
<path d="M54.0794 13.5801C55.0617 13.38 55.6649 13.2256 56.2775 13.1401C57.11 13.024 57.9469 13.0639 58.2471 14.0418C58.5645 15.0764 57.8917 15.6702 57.0606 15.973C56.1643 16.2994 55.2032 16.4462 54.067 16.7205C54.4342 18.7689 54.8096 20.8661 55.1863 22.963C55.4098 24.2072 55.6683 25.4462 55.849 26.6966C55.9733 27.5569 55.9986 28.4472 54.8563 28.6906C53.7349 28.9295 53.1512 28.229 52.9389 27.3151C52.4527 25.222 52.0968 23.0986 51.6736 20.9904C51.4351 19.8015 51.1681 18.6184 50.926 17.4891C50.0794 17.6987 49.3339 18.0886 48.6621 17.987C48.0883 17.9003 47.3304 17.3392 47.158 16.8193C47.0222 16.4093 47.6114 15.7133 47.9645 15.2045C48.1089 14.9964 48.4774 14.942 48.7474 14.8256C50.8909 13.9021 50.9221 13.7992 50.818 11.4182C50.7703 10.3267 50.8208 9.22242 50.9316 8.13474C51.0532 6.94214 51.9873 6.4377 53.3873 6.7036C54.4841 6.91188 54.8602 7.55648 54.6861 8.73643C54.4573 10.2863 54.2933 11.8458 54.0794 13.5801Z" fill="#026283"/>
<path d="M16.2055 19.6483C16.37 19.8715 16.5824 20.467 16.958 20.6012C17.6116 20.8345 18.921 19.7108 18.861 18.9442C18.8341 18.6012 18.2701 18.106 17.8791 18.0251C16.9234 17.8273 16.4138 18.4157 16.2055 19.6483ZM18.0728 23.99C19.1254 24.7983 19.9309 24.4156 20.6887 23.9555C21.4696 23.4815 22.1939 23.0684 22.7789 24.179C23.2795 25.1293 22.873 26.3414 21.8319 26.6906C18.7726 27.7166 16.1664 27.5523 14.4189 24.1801C13.582 22.5651 13.263 20.5715 13.1388 18.7203C12.9972 16.6107 14.8955 14.9506 17.0318 14.8724C19.3304 14.7882 21.4943 16.2399 22.3079 18.2803C22.773 19.4468 22.5165 20.3323 21.6069 21.091C20.4816 22.0295 19.3417 22.9505 18.0728 23.99Z" fill="#026283"/>
<path d="M27.2019 23.2675C27.1121 24.0124 27.055 24.8119 26.9117 25.5955C26.7088 26.7044 25.9643 27.1466 24.8932 27.0207C23.84 26.8969 23.3397 26.1285 23.3285 24.9335C23.3076 22.7031 23.3251 20.4648 23.1368 18.246C22.9951 16.577 22.5275 14.9381 22.2617 13.2767C22.1032 12.2859 21.931 11.2702 21.9889 10.2789C22.0531 9.17964 23.1077 8.38083 24.0826 8.53395C25.1961 8.70887 25.5005 9.50632 25.6181 10.5352C25.996 13.8427 26.4401 17.1424 26.8567 20.4454C26.9726 21.3645 27.0819 22.2845 27.2019 23.2675Z" fill="#026283"/>
<path d="M87.8438 14.0593C92.4114 18.6878 97.2635 23.6046 102.186 28.5924C101.09 29.5759 99.9118 30.6333 98.4628 31.9339C97.5528 30.9495 96.4501 29.6967 95.2833 28.5072C92.952 26.1306 90.5577 23.8157 88.2502 21.4165C87.54 20.6782 87.1025 20.7238 86.42 21.4267C83.3381 24.6009 80.2136 27.7334 77.0988 30.8754C76.7493 31.228 76.3648 31.5456 75.9213 31.9475C74.8815 30.814 73.8919 29.7352 72.8418 28.5905C77.7564 23.8301 82.7656 18.9782 87.8438 14.0593Z" fill="white"/>
<path d="M46.0071 36.1925C46.2201 34.2654 47.8303 33.2886 49.3362 34.2415C49.664 34.4489 49.9248 35.1584 49.8393 35.5547C49.5965 36.6804 48.0771 37.8196 46.9967 37.5985C46.5887 37.515 46.3325 36.6832 46.0071 36.1925Z" fill="white"/>
<path d="M31.3824 19.2898C30.5211 17.4804 31.0252 16.3251 32.3898 16.3636C33.4732 16.3942 33.8756 17.0551 33.2065 17.9016C32.7728 18.4504 32.0688 18.7837 31.3824 19.2898Z" fill="white"/>
<path d="M26.4032 40.9246C26.2975 42.1526 26.2178 43.3841 26.0577 44.6049C26.0343 44.783 25.6286 45.0359 25.3973 45.0386C24.5258 45.0487 23.634 45.063 22.7885 44.8874C22.3222 44.7906 21.6206 44.3548 21.5814 44.0083C21.521 43.4755 21.7794 42.6156 22.1849 42.3753C23.3529 41.683 24.6623 41.2316 25.9162 40.6855C26.0785 40.7652 26.2408 40.8449 26.4032 40.9246Z" fill="white"/>
<path d="M10.01 41.8127C9.19539 40.7218 9.10091 39.3455 9.79511 38.5491C10.5215 37.7159 11.4361 37.8249 12.3415 38.1466C13.049 38.398 13.2724 38.8718 12.9872 39.6401C12.4591 41.0625 11.2716 41.4738 10.01 41.8127Z" fill="white"/>
<path d="M16.2054 19.6482C16.4137 18.4156 16.9234 17.8272 17.879 18.025C18.2701 18.1058 18.8341 18.6011 18.8609 18.9441C18.921 19.7107 17.6116 20.8344 16.958 20.601C16.5824 20.4669 16.3699 19.8714 16.2054 19.6482Z" fill="white"/>
</svg>
