<svg width="56" height="57" viewBox="0 0 56 57" fill="none" xmlns="http://www.w3.org/2000/svg">
<path d="M28 42.7567C27.3763 42.7567 26.8393 42.5749 26.389 42.2112C25.9387 41.8487 25.6747 41.3832 25.597 40.8147H24.6226C24.1701 40.8147 23.7755 40.6458 23.4389 40.3081C23.1022 39.9726 22.9339 39.5786 22.9339 39.126V34.0397C21.1867 33.0715 19.8352 31.7521 18.8794 30.0815C17.9236 28.4097 17.4457 26.6484 17.4457 24.7976C17.4457 21.8469 18.4674 19.3505 20.5107 17.3083C22.5517 15.265 25.0482 14.2433 28 14.2433C30.9518 14.2433 33.4488 15.265 35.491 17.3083C37.5331 19.3516 38.5542 21.848 38.5542 24.7976C38.5542 26.6619 38.0763 28.4266 37.1205 30.0916C36.1647 31.7566 34.8132 33.0727 33.066 34.0397V39.1243C33.066 39.5769 32.8977 39.9715 32.5611 40.3081C32.2245 40.6458 31.8299 40.8147 31.3773 40.8147H30.403C30.3242 41.3832 30.0596 41.8487 29.6093 42.2112C29.159 42.5749 28.6225 42.7567 28 42.7567ZM24.6226 39.126H31.3773V37.4762H24.6226V39.126ZM24.6226 36.1776H31.3773V34.5075H24.6226V36.1776ZM28.7464 32.8188V27.5451L32.2673 24.0242L31.2085 22.9671L28 26.1755L24.7915 22.9671L23.7327 24.0242L27.2536 27.5451V32.8188H28.7464Z" fill="#026283"/>
</svg>
