<svg width="30" height="30" viewBox="0 0 30 30" fill="none" xmlns="http://www.w3.org/2000/svg">
<g clip-path="url(#clip0_154_307)">
<path d="M13.5342 0.0408249C10.6924 0.327934 7.98535 1.41192 5.74121 3.15215C5.05566 3.68536 3.88965 4.83379 3.32129 5.53692C1.65137 7.60528 0.584961 10.0193 0.133789 12.7439C-0.0185547 13.6697 -0.0185547 16.3299 0.133789 17.2557C0.69043 20.6131 2.14941 23.449 4.5166 25.7518C6.9248 28.0955 9.77832 29.4666 13.1826 29.9178C14.2021 30.0467 16.4229 30.0057 17.4365 29.8299C18.9717 29.5662 20.2783 29.1443 21.6494 28.4705C23.1025 27.7557 24.2744 26.9295 25.4814 25.7518C27.8193 23.4725 29.2725 20.701 29.8291 17.4373C30.0049 16.4178 30.0459 14.2674 29.917 13.1834C29.3779 8.78301 26.9463 4.86895 23.2314 2.42559C21.3037 1.15997 19.1592 0.374809 16.874 0.0876999C16.2119 0.00566864 14.1436 -0.0236282 13.5342 0.0408249ZM18.2568 8.84161C18.6963 8.92364 19.1826 9.12286 19.4932 9.34551C20.0791 9.76153 20.0791 9.76153 20.6357 9.57989C20.8994 9.492 21.3037 9.32793 21.5205 9.21661C21.9248 9.01739 22.0303 9.01153 22.0303 9.19317C22.0303 9.36895 21.6904 9.99004 21.4385 10.2772C21.3037 10.4295 21.21 10.5643 21.2275 10.5818C21.2451 10.5994 21.4971 10.535 21.7842 10.4354C22.0713 10.3357 22.335 10.2537 22.376 10.2537C22.6104 10.2537 22.2471 10.7928 21.4912 11.5486L20.999 12.0408L20.9287 12.8611C20.8408 13.8397 20.7412 14.3611 20.4775 15.1522C19.4404 18.2752 16.915 20.4783 13.6807 21.0818C12.8662 21.2283 11.2842 21.2166 10.458 21.0467C9.46777 20.8475 8.22559 20.3904 7.7334 20.0389C7.54004 19.8982 7.50488 19.7166 7.66309 19.6404C7.71582 19.6111 8.09082 19.5701 8.49512 19.5525C9.04004 19.5291 9.3623 19.4822 9.75488 19.3709C10.2529 19.2244 11.4834 18.6619 11.4834 18.5799C11.4834 18.5623 11.2959 18.4861 11.0674 18.41C10.5049 18.2342 10.0361 17.9412 9.64355 17.5193C9.30371 17.1443 8.86426 16.3475 8.93457 16.2303C8.96973 16.1775 9.09277 16.1658 9.35059 16.1893C9.55566 16.2127 9.72559 16.2068 9.72559 16.1834C9.72559 16.16 9.60254 16.0779 9.4502 15.9959C9.04004 15.7791 8.50098 15.2107 8.24902 14.7303C7.93262 14.1268 7.73926 13.201 7.90918 13.0955C7.94434 13.0779 8.1377 13.1248 8.34277 13.2068C8.55371 13.2889 8.75293 13.3592 8.78809 13.3592C8.82324 13.3592 8.73535 13.2068 8.59473 13.0193C8.09668 12.3807 7.90918 11.8299 7.90918 11.0154C7.90918 10.4647 7.96191 10.2127 8.18457 9.70879C8.29004 9.47442 8.36621 9.37481 8.44238 9.37481C8.50684 9.37481 8.55371 9.39825 8.55371 9.42168C8.55371 9.52715 9.7373 10.6346 10.2002 10.9686C10.8096 11.4022 11.7412 11.8768 12.4795 12.1229C13.042 12.3162 14.3193 12.5623 14.4541 12.5154C14.5068 12.492 14.5303 12.3514 14.5303 12.0877C14.5361 11.1971 14.8701 10.3416 15.4443 9.75567C16.1768 9.01153 17.2725 8.65411 18.2568 8.84161Z" fill="#026283"/>
</g>
<defs>
<clipPath id="clip0_154_307">
<rect width="30" height="30" fill="white"/>
</clipPath>
</defs>
</svg>
