<svg width="20" height="21" viewBox="0 0 20 21" fill="none" xmlns="http://www.w3.org/2000/svg">
<path d="M8.33341 14.6666L4.16675 10.5L5.34175 9.31662L8.33341 12.3083L14.6584 5.98329L15.8334 7.16662M10.0001 2.16663C8.90573 2.16663 7.8221 2.38217 6.81105 2.80096C5.8 3.21975 4.88135 3.83358 4.10752 4.6074C2.54472 6.1702 1.66675 8.28982 1.66675 10.5C1.66675 12.7101 2.54472 14.8297 4.10752 16.3925C4.88135 17.1663 5.8 17.7802 6.81105 18.1989C7.8221 18.6177 8.90573 18.8333 10.0001 18.8333C12.2102 18.8333 14.3298 17.9553 15.8926 16.3925C17.4554 14.8297 18.3334 12.7101 18.3334 10.5C18.3334 9.40561 18.1179 8.32197 17.6991 7.31093C17.2803 6.29988 16.6665 5.38122 15.8926 4.6074C15.1188 3.83358 14.2002 3.21975 13.1891 2.80096C12.1781 2.38217 11.0944 2.16663 10.0001 2.16663Z" fill="#026283"/>
</svg>
