<svg width="30" height="30" viewBox="0 0 30 30" fill="none" xmlns="http://www.w3.org/2000/svg">
<g clip-path="url(#clip0_154_315)">
<path d="M13.5353 0.041069C10.6935 0.328178 7.98649 1.41216 5.74235 3.1524C5.0568 3.6856 3.89079 4.83404 3.32243 5.53716C1.68766 7.56451 0.621257 9.93169 0.164225 12.5626C-0.00569662 13.5704 -0.0525716 15.7911 0.082194 16.8165C0.334147 18.7032 0.797038 20.2208 1.62321 21.8438C2.31462 23.209 3.12321 24.3282 4.24821 25.4825C6.67399 27.9727 9.65641 29.4551 13.1838 29.918C14.2033 30.0469 16.424 30.0059 17.4377 29.8301C18.9728 29.5665 20.2795 29.1446 21.6506 28.4708C23.1037 27.7559 24.2756 26.9297 25.4826 25.752C27.8088 23.4844 29.2736 20.6895 29.8302 17.4376C30.006 16.418 30.047 14.2676 29.9181 13.1836C29.3791 8.78326 26.9474 4.86919 23.2326 2.42583C21.3048 1.16021 19.1603 0.375053 16.8752 0.087944C16.2131 0.00591278 14.1447 -0.0233841 13.5353 0.041069ZM17.3439 9.60943C19.1838 9.70904 20.1506 9.82037 20.59 9.98443C21.2404 10.2305 21.7619 10.6641 22.0256 11.1797C22.1838 11.4844 22.3713 12.8145 22.4357 14.0215C22.5295 15.7501 22.3068 18.211 22.0021 18.8438C21.7502 19.3536 21.1642 19.8165 20.4259 20.0743C19.922 20.2559 17.0861 20.4493 15.0002 20.4493C12.9494 20.4493 10.0666 20.2501 9.57438 20.0801C8.8361 19.8165 8.25016 19.3536 7.99821 18.8438C7.90446 18.6446 7.81071 18.2637 7.72282 17.6954C7.60563 16.9454 7.59391 16.6231 7.59391 15.0001C7.59391 13.377 7.60563 13.0547 7.72282 12.3047C7.81071 11.7364 7.90446 11.3555 7.99821 11.1563C8.27946 10.5762 9.01774 10.0547 9.79704 9.87896C10.9572 9.62115 14.8654 9.48052 17.3439 9.60943Z" fill="#026283"/>
<path d="M13.1836 15.0293V17.9414L13.377 17.8184C13.4766 17.7539 14.5488 17.0977 15.7441 16.3652C16.9453 15.6328 17.9238 15.0176 17.9238 15C17.9238 14.9648 13.3594 12.1641 13.2598 12.1406C13.1953 12.123 13.1836 12.6797 13.1836 15.0293Z" fill="#026283"/>
</g>
<defs>
<clipPath id="clip0_154_315">
<rect width="30" height="30" fill="white"/>
</clipPath>
</defs>
</svg>
